HIERARCHY
ROOT Hips
{
    OFFSET 0.000000 0.000000 0.000000
    CHANNELS 6 Xposition Yposition Zposition Zrotation Xrotation Yrotation
    JOINT Spine
    {
        OFFSET -0.000000 7.236184 0.000000
        CHANNELS 3 Zrotation Xrotation Yrotation
        JOINT Spine1
        {
            OFFSET -0.000000 20.420147 0.000000
            CHANNELS 3 Zrotation Xrotation Yrotation
            JOINT Neck
            {
                OFFSET -0.000000 20.336288 1.848754
                CHANNELS 3 Zrotation Xrotation Yrotation
                JOINT Head
                {
                    OFFSET -0.000000 12.354461 -1.764923
                    CHANNELS 3 Zrotation Xrotation Yrotation
                    End Site
                    {
                        OFFSET -0.000000 22.061537 0.000000
                    }
                }
            }
            JOINT LeftShoulder
            {
                OFFSET 3.573296 18.396038 -0.314103
                CHANNELS 3 Zrotation Xrotation Yrotation
                JOINT LeftArm
                {
                    OFFSET 10.880760 0.000000 0.000000
                    CHANNELS 3 Zrotation Xrotation Yrotation
                    JOINT LeftForeArm
                    {
                        OFFSET 27.185530 0.000000 0.000000
                        CHANNELS 3 Zrotation Xrotation Yrotation
                        JOINT LeftHand
                        {
                            OFFSET 27.825975 0.000000 0.000000
                            CHANNELS 3 Zrotation Xrotation Yrotation
                            End Site
                            {
                                OFFSET 13.236923 0.000000 0.000000
                            }
                        }
                    }
                }
            }
            JOINT RightShoulder
            {
                OFFSET -3.474926 18.396038 -0.314103
                CHANNELS 3 Zrotation Xrotation Yrotation
                JOINT RightArm
                {
                    OFFSET -10.880760 0.000000 0.000000
                    CHANNELS 3 Zrotation Xrotation Yrotation
                    JOINT RightForeArm
                    {
                        OFFSET -27.185530 0.000000 0.000000
                        CHANNELS 3 Zrotation Xrotation Yrotation
                        JOINT RightHand
                        {
                            OFFSET -27.825975 0.000000 0.000000
                            CHANNELS 3 Zrotation Xrotation Yrotation
                            End Site
                            {
                                OFFSET -13.236923 0.000000 0.000000
                            }
                        }
                    }
                }
            }
        }
    }
    JOINT LeftUpLeg
    {
        OFFSET 8.824615 0.000000 0.000000
        CHANNELS 3 Zrotation Xrotation Yrotation
        JOINT LeftLeg
        {
            OFFSET -0.000000 -35.111282 0.000000
            CHANNELS 3 Zrotation Xrotation Yrotation
            JOINT LeftFoot
            {
                OFFSET -0.000000 -42.324711 0.000000
                CHANNELS 3 Zrotation Xrotation Yrotation
                JOINT LeftToeBase
                {
                    OFFSET -0.000000 -5.735999 13.236923
                    CHANNELS 3 Zrotation Xrotation Yrotation
                    End Site
                    {
                        OFFSET -0.000000 0.000000 3.529846
                    }
                }
            }
        }
    }
    JOINT RightUpLeg
    {
        OFFSET -8.824615 0.000000 0.000000
        CHANNELS 3 Zrotation Xrotation Yrotation
        JOINT RightLeg
        {
            OFFSET -0.000000 -35.111282 0.000000
            CHANNELS 3 Zrotation Xrotation Yrotation
            JOINT RightFoot
            {
                OFFSET -0.000000 -42.324711 0.000000
                CHANNELS 3 Zrotation Xrotation Yrotation
                JOINT RightToeBase
                {
                    OFFSET -0.000000 -5.735999 13.236923
                    CHANNELS 3 Zrotation Xrotation Yrotation
                    End Site
                    {
                        OFFSET -0.000000 0.000000 3.529846
                    }
                }
            }
        }
    }
}
MOTION
Frames:    4
Frame Time:    0.008333
0.870295    80.661888    98.825264    -3.992405    -9.445041    -175.362701    -1.656540    -8.356818    0.414753    -0.418358    5.337465    0.555288    -0.923510    10.082195    -3.523484    5.395389    2.794814    -2.974105    4.226870    11.700852    2.745549    -37.879543    28.095469    -30.200081    25.969072    -4.021965    -63.129700    28.567446    10.439276    -7.143518    -1.260314    14.317618    -8.679728    38.034328    27.232784    20.719202    -31.017025    -12.925918    76.791252    -35.587349    10.701127    5.651814    3.112904    -18.074829    -4.287175    0.926028    25.048058    -0.187934    -9.920428    -11.771366    -12.005953    0.422233    -1.643857    -0.469439    -5.071842    -15.683627    1.321195    2.824111    25.782635    6.530904    -4.947210    -13.506886    -17.827517    -2.096108    -1.199063    2.270830    
0.839012    80.690056    98.900185    -3.963851    -9.368498    -175.289032    -1.673323    -8.331947    0.430082    -0.414494    5.205488    0.570881    -0.896516    10.055124    -3.581214    5.498444    2.713868    -3.019485    4.479563    11.235124    2.027730    -36.622581    28.161087    -32.584755    25.851730    -3.651043    -61.378448    28.555258    10.169760    -7.181864    -1.443543    13.916879    -7.968793    36.353630    27.133299    22.944464    -31.094492    -12.606337    75.318344    -35.542652    10.409527    5.661006    3.114750    -18.054735    -4.320438    0.924469    25.013021    -0.209978    -9.944212    -11.640669    -12.067324    0.386023    -1.738445    -0.429256    -5.098074    -15.562811    1.286320    2.854842    25.614233    6.473619    -4.908003    -13.439095    -17.785257    -2.106614    -1.166367    2.282107    
0.804877    80.716682    98.978111    -3.934566    -9.288879    -175.212219    -1.689075    -8.304985    0.439085    -0.415830    5.076245    0.580205    -0.855996    10.037559    -3.633890    5.585739    2.624289    -3.061790    4.743612    10.731564    1.298782    -35.382767    28.171638    -34.963902    25.670137    -3.216773    -59.503460    28.535500    9.897032    -7.242011    -1.633634    13.490346    -7.228674    34.691425    26.980171    25.150986    -31.133152    -12.212024    73.725044    -35.513336    10.100855    5.720434    3.114828    -18.039383    -4.340121    0.929139    24.987316    -0.250038    -9.961014    -11.512562    -12.131360    0.346756    -1.845000    -0.385668    -5.124410    -15.445692    1.244412    2.880904    25.455839    6.418256    -4.861813    -13.372605    -17.739515    -2.116634    -1.137866    2.292868    
0.768173    80.741325    99.058342    -3.904910    -9.207201    -175.133820    -1.704762    -8.277741    0.442259    -0.418438    4.954791    0.583770    -0.808345    10.026565    -3.681754    5.660214    2.527444    -3.100650    5.011307    10.198414    0.566499    -34.177521    28.118147    -37.316948    25.413662    -2.718925    -57.521629    28.504801    9.626925    -7.325262    -1.834276    13.039229    -6.465434    33.072006    26.780216    27.314100    -31.125643    -11.744589    72.026344    -35.500008    9.779669    5.829529    3.112970    -18.029064    -4.345583    0.940179    24.971420    -0.306697    -9.970786    -11.389092    -12.195103    0.306654    -1.960848    -0.341139    -5.150552    -15.335027    1.195643    2.901846    25.311344    6.366373    -4.810267    -13.307225    -17.691595    -2.126643    -1.112577    2.303631    
